inDegrees=no
num_controls=7
num_derivatives=13
num_iterations=160
num_multipliers=7
num_parameters=0
num_slacks=7
num_states=26
objective=5.270992
objective_accelerations=0.460529
objective_balance=0.008458
objective_effort=0.389959
objective_height=4.365388
objective_ligament=0.046657
solver_duration=1338.434691
status=Solve_Succeeded
success=true
DataType=double
version=3
OpenSimVersion=4.4-2022-07-23-0e9fedc
endheader
time	/jointset/ground_pelvis/pelvis_tilt/value	/jointset/ground_pelvis/pelvis_tx/value	/jointset/ground_pelvis/pelvis_ty/value	/jointset/hip_r/hip_flexion_r/value	/jointset/hip_r/hip_adduction_r/value	/jointset/hip_r/hip_rotation_r/value	/jointset/back/lumbar_extension/value	/jointset/patellofemoral_r/patellar_flexion_r/value	/jointset/knee_r/knee_flexion_r/value	/jointset/knee_r/knee_adduction_r/value	/jointset/knee_r/knee_rotation_r/value	/jointset/ankle_r/ankle_angle_r/value	/jointset/subtalar_r/subtalar_angle_r/value	/jointset/ground_pelvis/pelvis_tilt/speed	/jointset/ground_pelvis/pelvis_tx/speed	/jointset/ground_pelvis/pelvis_ty/speed	/jointset/hip_r/hip_flexion_r/speed	/jointset/hip_r/hip_adduction_r/speed	/jointset/hip_r/hip_rotation_r/speed	/jointset/back/lumbar_extension/speed	/jointset/patellofemoral_r/patellar_flexion_r/speed	/jointset/knee_r/knee_flexion_r/speed	/jointset/knee_r/knee_adduction_r/speed	/jointset/knee_r/knee_rotation_r/speed	/jointset/ankle_r/ankle_angle_r/speed	/jointset/subtalar_r/subtalar_angle_r/speed	/forceset/tau_hip_flexion_r	/forceset/tau_hip_adduction_r	/forceset/tau_hip_rotation_r	/forceset/tau_knee_flexion_r	/forceset/tau_ankle_angle_r	/forceset/tau_subtalar_angle_r	/forceset/tau_lumbar_extension	lambda_cid13_p0	lambda_cid14_p0	lambda_cid14_p1	lambda_cid14_p2	lambda_cid14_p3	lambda_cid14_p4	lambda_cid14_p5	/jointset/ground_pelvis/pelvis_tilt/accel	/jointset/ground_pelvis/pelvis_tx/accel	/jointset/ground_pelvis/pelvis_ty/accel	/jointset/hip_r/hip_flexion_r/accel	/jointset/hip_r/hip_adduction_r/accel	/jointset/hip_r/hip_rotation_r/accel	/jointset/back/lumbar_extension/accel	/jointset/patellofemoral_r/patellar_flexion_r/accel	/jointset/knee_r/knee_flexion_r/accel	/jointset/knee_r/knee_adduction_r/accel	/jointset/knee_r/knee_rotation_r/accel	/jointset/ankle_r/ankle_angle_r/accel	/jointset/subtalar_r/subtalar_angle_r/accel	gamma_cid13_p0	gamma_cid14_p0	gamma_cid14_p1	gamma_cid14_p2	gamma_cid14_p3	gamma_cid14_p4	gamma_cid14_p5
1	-0.1505644825321981	0.007865636180439135	0.6949648234602915	1.195938105284613	-0.2323219141021935	-0.1251939229144669	-0.7853745413236857	1.362969877917755	1.362969877917773	-0.1744802721603934	0.1743724030663987	0.4362792735976795	0.1880275588022463	0.06794833263531248	0.006329590965973405	0.01521675577733278	-0.1014330948948224	-0.001393477023707183	0.001715460247755236	0.00361453254294076	-0.02096094782114405	-0.02096094782114361	0.01001293232592948	-0.0001909295763527901	0.01152274522449837	0.003497320336597074	-0.2791313479745433	0.01868766374086308	0.01693625875590899	-0.4370936509303323	-0.03469767332696581	0.01538592869883594	0.3257170165392098	-0.04305538154991774	-60.60706673001284	-5.467990775389878	3.050722347243772	7.840642338914086	-751.1763472378631	81.18959136917212	1.011253092256139	0.1456934592351018	1.481688337172863	-4.449983391958925	0.2611093263511181	-0.2489349457251527	0.2433981079779366	-4.509985876356265	-4.509985876356252	0.9034449258282304	-0.00380414258607045	-1.248667887469472	-0.1693756497684797	6.055563233341987e-10	-7.244473841014967e-10	1.490959862356245e-08	7.004367728062262e-09	2.253341602316691e-09	-5.312837211401646e-09	2.187888938284188e-08
1.01	-0.1498354676804851	0.007936436685086605	0.6951909321393218	1.194702257044442	-0.2323230792281173	-0.1251868606893301	-0.7853235051735852	1.362535309345388	1.362535309345386	-0.174332340238951	0.1743701261794514	0.436332308351277	0.1880535914382189	0.07781109121354285	0.007854757325104876	0.03000338910640551	-0.14572410040449	0.00114958512476228	-0.0002859439211052619	0.006795907647863458	-0.06595116638009141	-0.06595116638009324	0.01960553831931927	-0.0002572383212571741	-0.0008874535557940572	0.001703268119481275	-0.2800071527661737	0.01876294615993097	0.01698785546380189	-0.4370024902788373	-0.03502680705209524	0.01537647102074106	0.3268945947398196	-0.04304768286141536	-60.75197841512408	-5.493161373716934	3.049812564190335	7.62000376777133	-751.9395781550753	81.17803457101108	0.9672569305034268	0.1595658215280584	1.476910000412761	-4.416789786286094	0.2492799335876995	-0.1731800084650122	0.3859887374093138	-4.493300556610658	-4.493300556611	0.9919824985347454	-0.006952983178337261	-1.232945562155463	-0.1853009156140291	3.727319590402766e-09	3.244253898209981e-09	3.518124134567109e-08	3.617738902789667e-08	2.463478117835318e-09	-1.090354569988484e-08	5.877828576828907e-08
1.02	-0.1490091313050115	0.008023216372780613	0.6955648589855704	1.193023872618011	-0.232299138677658	-0.1251992998770813	-0.7852345589673034	1.361650886445243	1.361650886445221	-0.174087519445089	0.1743674044565075	0.4362620911793047	0.1880615073704342	0.08741263738765276	0.009525427575281126	0.0447803892210019	-0.1899403321467735	0.003627658252946602	-0.002184822329906585	0.01119654377918058	-0.1109318133769071	-0.1109318133769115	0.02939070681032542	-0.000279896775591506	-0.01312763988994077	-0.0001260204148698488	-0.2808829575578011	0.01883822857899823	0.01703945217172215	-0.4369113296273391	-0.03535594077722579	0.01536701334264376	0.3280721729404319	-0.04304650398071153	-60.90556716377332	-5.515079465911223	3.042933245188594	7.402624035266943	-752.8452452663795	81.20689054106509	0.9590106114320872	0.1747942374440284	1.47976169427759	-4.43502863848212	0.2481115222940979	-0.228429793713312	0.487250313256842	-4.508071563929917	-4.508071563929976	0.9419574253514952	0.004925915527932925	-1.214665398240373	-0.1764229132155532	7.477512138761119e-09	1.04024966415308e-08	5.716853605159542e-08	7.029074895504986e-08	-2.71940899035529e-09	-1.522264709744409e-08	1.021189986352967e-07
1.03	-0.1480880171649074	0.008127301955329725	0.6960864467490798	1.190903902517604	-0.2322507072891692	-0.1252302936569512	-0.7850961238347671	1.360316688878361	1.360316688878349	-0.1737440012736037	0.1743646591693186	0.4360700340451921	0.1880508714420343	0.0967717758448912	0.01130319584530464	0.05952926443201638	-0.2340191039854283	0.006051535118603416	-0.004002197105551953	0.01663476814434642	-0.1559072763449018	-0.1559072763449076	0.03933523224539865	-0.0002650281433133583	-0.02528421147702318	-0.002014840341937612	-0.281212592135236	0.01897849463810715	0.01710329351324735	-0.4363668586142483	-0.03591561007855116	0.01533127322070406	0.3286458617814467	-0.04306037202080449	-61.10380330127744	-5.554834487630938	3.037304686901448	7.440994650029161	-753.1201207262677	81.11881289007687	0.918607181530082	0.1809925351104752	1.471261645324557	-4.38911016608437	0.2384777242185027	-0.156621900392167	0.5937513106414288	-4.492222384631749	-4.492222384631898	1.024046592354797	0.000414153849977522	-1.216216854439992	-0.1971378961967998	1.12341172308061e-08	1.759328572629051e-08	7.917333741041585e-08	1.044545205008492e-07	-7.957326951849085e-09	-1.952877291244288e-08	1.45525439221504e-07
1.04	-0.1470744632964997	0.008249510103244914	0.6967552855068614	1.188344182956905	-0.2321782467409209	-0.1252791073007572	-0.7848989778960804	1.35853274893752	1.358532748937518	-0.1733003685498156	0.174362191931807	0.435756398432109	0.1880209420416148	0.1059005830485449	0.01314994064849612	0.07423058807547073	-0.2778902242051711	0.008433490204942214	-0.005748795117278055	0.02293870500931034	-0.2008802881687972	-0.2008802881688038	0.04941361727125471	-0.0002242868401476068	-0.03744333568401897	-0.003984714818781153	-0.2815422267126732	0.01911876069721659	0.0171671348547883	-0.4358223876011562	-0.03647527937987659	0.01529553309876493	0.3292195506224593	-0.04308043440470827	-61.31070028498502	-5.591202867719315	3.025535236022422	7.480772221972332	-753.5389335394295	81.07140746893555	0.9129443607151853	0.1885895440775952	1.470251380765557	-4.393498314699714	0.2397271664305025	-0.214274440929453	0.6603928132164776	-4.507581335110056	-4.507581335110022	0.9687293435080586	0.01010044970544564	-1.215175922223088	-0.1926338231707153	1.451956495461322e-08	2.303394151647431e-08	9.860105726710098e-08	1.363015171079059e-07	-1.048839482401086e-08	-2.350524532135205e-08	1.82598076888527e-07
1.05	-0.1459707377427818	0.008390572486529066	0.6975708408468592	1.185346823219766	-0.2320822010979731	-0.1253451024458227	-0.7846344511332324	1.356299204305798	1.356299204305792	-0.1727553617450519	0.1743602673136951	0.4353212083122258	0.187970894565284	0.1148075874040832	0.01507828910250812	0.08886646854403801	-0.321541704430613	0.01076631373753691	-0.00743997453584026	0.03011496191071173	-0.2458163268607575	-0.2458163268607633	0.05960712880300962	-0.0001578403388064017	-0.04959025586172171	-0.006039541058459137	-0.281608786966512	0.01917565353449179	0.01727855130554274	-0.4350921767515032	-0.0367652610597909	0.01523439681593882	0.3295993422250161	-0.04310135198246237	-61.40669719445167	-5.620936096025459	3.014710870284383	7.413887859927917	-753.6049650719723	80.99237048359842	0.8740435955575622	0.1973178484306227	1.458149138542925	-4.344964203623112	0.2286849100366484	-0.1449859929099109	0.7684892812186064	-4.484772030079628	-4.484772030079514	1.047570511624626	0.00537880630777046	-1.213785082091942	-0.2140825641478373	1.77902890106629e-08	2.841990564120261e-08	1.179482433268444e-07	1.680761144981269e-07	-1.293487363088102e-08	-2.747141606132092e-08	2.194727832143254e-07
1.06	-0.1447790491209924	0.008551390424826921	0.6985323335432705	1.181914150414941	-0.2319631022270273	-0.1254276986451917	-0.7842937123708473	1.353616667908387	1.35361666790838	-0.1721078381342496	0.1743590995717878	0.4347646819872559	0.1878998637186002	0.1234931966629992	0.01710105165123661	0.1034180593582224	-0.3649528377423216	0.01304413580464069	-0.009069005978014936	0.03818110491677743	-0.2906786413063431	-0.2906786413063484	0.06991697847938189	-7.291159909393659e-05	-0.06171057670134827	-0.008181388889396403	-0.2816753472203516	0.01923254637176618	0.01738996775631966	-0.4343619659018481	-0.03705524273970592	0.0151732605331103	0.3299791338275718	-0.0431279604089195	-61.51138601703063	-5.647206543389067	2.997640298670768	7.347574267395879	-753.8164602714389	80.95403833442727	0.8686653413907689	0.2074723630208678	1.453393449888968	-4.345428931953049	0.2287268733323269	-0.2018448456519407	0.8383700341493548	-4.492836485835126	-4.492836485835149	0.9919969724315258	0.01379689737968859	-1.209856054607892	-0.210038141422577	2.070525453674351e-08	3.328205342797209e-08	1.344435521407447e-07	1.966756106793361e-07	-1.547551076055878e-08	-3.089282569278347e-08	2.510018209593421e-07
1.07	-0.1435015638651589	0.008732907230888995	0.6996388584777251	1.178048644424498	-0.2318215113951235	-0.1255263851527904	-0.7838680164402398	1.350485964419318	1.350485964419338	-0.1713567630023973	0.1743588802181149	0.4340870566557016	0.1878069515557849	0.1319695986584237	0.01921801865827706	0.1178664624406472	-0.4080985225135899	0.01526376912755228	-0.01066025749711194	0.04709375745823338	-0.3354400208793713	-0.3354400208793711	0.08031296222186313	3.003712294271923e-05	-0.07381299574685488	-0.01041844908071099	-0.2813947500659323	0.01923192563286106	0.01753572023033926	-0.4333660142257222	-0.0372093407933177	0.01509285610871681	0.3300419854219843	-0.04315803129828234	-61.54491017493156	-5.668944490665732	2.979344708817129	7.26845100597308	-753.5860553365835	80.86832376301481	0.8319972798598146	0.2161615938121285	1.437487068580583	-4.291654907825294	0.2170740883780778	-0.13653936813876	0.9380643022192928	-4.464488110027495	-4.464488110026648	1.065636786114872	0.008749712337454753	-1.210210335300371	-0.2331003084710798	2.360129673676195e-08	3.811633864357353e-08	1.507871653564619e-07	2.251062184983639e-07	-1.802115631166248e-08	-3.428525866953823e-08	2.822465146309129e-07
